<?xml version="1.0" encoding="utf-8"?>
<!-- Generator: Adobe Illustrator 27.1.0, SVG Export Plug-In . SVG Version: 6.00 Build 0)  -->
<svg version="1.1" id="Camada_1" xmlns="http://www.w3.org/2000/svg" xmlns:xlink="http://www.w3.org/1999/xlink" x="0px" y="0px"
	 viewBox="0 0 1280 1280" style="enable-background:new 0 0 1280 1280;" xml:space="preserve">
<style type="text/css">
	.st0{fill:#FFFFFF;}
	.st1{fill:#6750A4;}
	.st2{fill:#434C54;}
	.st3{font-family:'Roboto-Bold';}
	.st4{font-size:201.3188px;}
</style>
<g>
	<g id="CUSTOM-Group_00000056398169769486531000000018357985724862224267_">
		<path class="st0" d="M566.4,522.4c0,21.5-13.5,38.8-30.3,38.8h-84.7c-16.7,0-30.3-17.3-30.3-38.8v-202c0-21.5,13.5-38.8,30.3-38.8
			h84.7c16.7,0,30.3,17.4,30.3,38.8V522.4z"/>
		<g>
			<path class="st1" d="M582.7,315.7c0,11.2-9,20.1-20.1,20.1H425.3c-11.2,0-20.1-9-20.1-20.1v-30.3c0-11.2,9-20.1,20.1-20.1h137.1
				c11.2,0,20.1,9,20.1,20.1v30.3H582.7z"/>
			<path class="st0" d="M495.7,1081.7c-43.2,0-78.3-35-78.3-78.3v-391c0-22,9.3-43,25.5-57.7l274.1-250.3
				c15-13.6,33.9-20.4,52.8-20.4c18.9,0,37.8,6.8,52.8,20.4l274.1,250.3c16.2,14.9,25.5,35.8,25.5,57.7v391.1
				c0,43.2-35,78.3-78.3,78.3H495.7V1081.7z"/>
			<path class="st0" d="M1084.5,625.8v377.7c0,43.2-35,78.3-78.3,78.3h37.7c43.2,0,78.2-35,78.2-78.3V625.8H1084.5z"/>
		</g>
		<path class="st0" d="M476.2,748.4c0-22,9.3-43,25.5-57.7l274.1-250.3c15-13.6,33.9-20.4,52.8-20.4c18.9,0,37.8,6.8,52.8,20.4
			l240.8,219.9v-47.8c0-22-9.3-43-25.5-57.7L822.5,304.4c-15-13.6-33.9-20.4-52.8-20.4s-37.8,6.8-52.8,20.4L443,554.7
			c-16.2,14.8-25.5,35.8-25.5,57.7v391.1c0,36.4,25,67.1,58.8,75.8V748.4z"/>
		<path class="st1" d="M1139.6,684.6c-12.8,0-25.1-4.7-34.6-13.4L769.9,365L434.6,671.1c-9.4,8.6-21.8,13.4-34.6,13.4h-50.7
			c-21.2,0-40.2-13-47.8-32.7c-7.6-19.7-2.4-42.1,13.2-56.4l420.5-383.9c9.8-8.9,22.2-13.4,34.5-13.4c12.4,0,24.8,4.4,34.6,13.4
			l420.4,383.9c15.6,14.2,20.9,36.7,13.2,56.4c-7.6,19.7-26.6,32.7-47.8,32.7H1139.6z"/>
		<path class="st1" d="M1224.8,595.4L812,218.6c-7.8,2.1-15.3,6-21.6,11.8L779,240.8l387.5,353.8c15.6,14.2,20.9,36.7,13.2,56.4
			c-7.6,19.7-26.6,32.7-47.8,32.7h-2.3c3.3,0.6,6.6,1,10,1h50.7c21.2,0,40.2-13,47.8-32.7C1245.7,632.1,1240.5,609.7,1224.8,595.4z"
			/>
		<path class="st2" d="M1234.9,584.5L814.4,200.6c-12.2-11.2-28.1-17.2-44.6-17.2s-32.4,6.1-44.6,17.2L597.3,317.3
			c0-0.5,0.1-1,0.1-1.5v-30.3c0-19.3-15.7-35.1-35.1-35.1h-137c-19.3,0-35.1,15.7-35.1,35.1v30.3c0,12.4,6.4,23.2,16.1,29.4v146.5
			l-101.6,92.8c-20.3,18.6-27.1,47.1-17,72.8c9.8,25.3,34.6,42.2,61.6,42.2H400c0.8,0,1.8,0,2.6-0.1v304.1
			c0,51.3,41.8,93.1,93.1,93.1H1044c51.3,0,93.1-41.7,93.1-93.1V699.4c0.8,0,1.8,0.1,2.6,0.1h50.7c27.1,0,51.8-16.9,61.6-42.2
			C1261.8,631.6,1255.1,603,1234.9,584.5z M436.1,350.7h115.4v8.4L436.1,464.5V350.7z M420,285.5c0-2.9,2.4-5.3,5.3-5.3h137.1
			c2.9,0,5.3,2.4,5.3,5.3v30.3c0,2.9-2.4,5.3-5.3,5.3H425.3c-2.9,0-5.3-2.4-5.3-5.3V285.5z M1107.3,1003.5
			c0,34.9-28.4,63.3-63.3,63.3H495.7c-34.9,0-63.3-28.4-63.3-63.3V691c4.3-2.5,8.5-5.4,12.2-8.9l325.2-297l325.2,297
			c3.7,3.4,7.8,6.4,12.2,8.9V1003.5z M1224.2,646.5c-5.4,13.8-19,23.2-33.9,23.2h-50.7c-9.1,0-17.8-3.4-24.5-9.5L769.9,344.9
			L424.5,660.2c-6.7,6.1-15.4,9.5-24.5,9.5h-50.7c-14.9,0-28.5-9.3-33.9-23.2c-5.5-14-1.8-29.7,9.4-40l420.4-383.9
			c6.7-6.1,15.4-9.5,24.5-9.5s17.8,3.4,24.5,9.5l420.4,383.9C1225.9,616.6,1229.6,632.3,1224.2,646.5z"/>
	</g>
	<g id="CUSTOM-Group_00000026151055119708742820000017011236922784156810_">
		<path class="st0" d="M306.9,522.4c0,21.5-13.5,38.8-30.3,38.8H192c-16.7,0-30.3-17.3-30.3-38.8v-202c0-21.5,13.5-38.8,30.3-38.8
			h84.7c16.7,0,30.3,17.4,30.3,38.8V522.4z"/>
		<g>
			<path class="st1" d="M323,315.7c0,11.2-9,20.1-20.1,20.1H165.7c-11.2,0-20.1-9-20.1-20.1v-30.3c0-11.2,9-20.1,20.1-20.1h137.1
				c11.2,0,20.1,9,20.1,20.1L323,315.7L323,315.7z"/>
			<path class="st1" d="M236,1081.7c-43.2,0-78.3-35-78.3-78.3v-391c0-22,9.3-43,25.5-57.7l274.1-250.3c15-13.6,33.9-20.4,52.8-20.4
				c18.9,0,37.8,6.8,52.8,20.4l274.1,250.3c16.2,14.9,25.5,35.8,25.5,57.7v391.1c0,43.2-35,78.3-78.3,78.3H236V1081.7z"/>
			<path class="st1" d="M824.8,625.8v377.7c0,43.2-35,78.3-78.3,78.3h37.7c43.2,0,78.2-35,78.2-78.3V625.8H824.8z"/>
		</g>
		<path class="st1" d="M216.6,748.4c0-22,9.3-43,25.5-57.7l274.1-250.3c15-13.6,33.9-20.4,52.8-20.4c18.9,0,37.8,6.8,52.8,20.4
			l240.8,219.9v-47.8c0-22-9.3-43-25.5-57.7L562.9,304.4c-15-13.6-33.9-20.4-52.8-20.4c-18.9,0-37.8,6.8-52.8,20.4l-274,250.3
			c-16.2,14.8-25.5,35.8-25.5,57.7v391.1c0,36.4,25,67.1,58.8,75.8V748.4z"/>
		<path class="st0" d="M880,684.6c-12.8,0-25.1-4.7-34.6-13.4L510.2,365L174.9,671.1c-9.4,8.6-21.8,13.4-34.6,13.4H89.7
			c-21.2,0-40.2-13-47.8-32.7s-2.4-42.1,13.2-56.4l420.5-383.9c9.8-8.9,22.2-13.4,34.5-13.4c12.4,0,24.8,4.4,34.6,13.4l420.4,383.9
			c15.6,14.2,20.9,36.7,13.2,56.4c-7.6,19.7-26.6,32.7-47.8,32.7H880z"/>
		<path class="st0" d="M965.2,595.4L552.4,218.6c-7.8,2.1-15.3,6-21.6,11.8l-11.4,10.4L907,594.6c15.6,14.2,20.9,36.7,13.2,56.4
			c-7.6,19.7-26.6,32.7-47.8,32.7h-2.3c3.3,0.6,6.6,1,10,1h50.7c21.2,0,40.2-13,47.8-32.7C986.1,632.1,980.8,609.7,965.2,595.4z"/>
		<path class="st2" d="M975.2,584.5L554.8,200.6c-12.2-11.2-28.1-17.2-44.6-17.2s-32.4,6.1-44.6,17.2L337.7,317.3
			c0-0.5,0.1-1,0.1-1.5v-30.3c0-19.3-15.7-35.1-35.1-35.1h-137c-19.3,0-35.1,15.7-35.1,35.1v30.3c0,12.4,6.4,23.2,16.1,29.4v146.5
			L45.1,584.5c-20.3,18.6-27.1,47.1-17,72.8c9.8,25.3,34.6,42.2,61.6,42.2h50.7c0.8,0,1.8,0,2.6-0.1v304.1
			c0,51.3,41.8,93.1,93.1,93.1h548.3c51.3,0,93.1-41.7,93.1-93.1V699.4c0.8,0,1.8,0.1,2.6,0.1h50.7c27.1,0,51.8-16.9,61.6-42.2
			C1002.3,631.6,995.6,603,975.2,584.5z M176.6,350.7H292v8.4L176.6,464.5V350.7z M160.5,285.5c0-2.9,2.4-5.3,5.3-5.3h137.1
			c2.9,0,5.3,2.4,5.3,5.3v30.3c0,2.9-2.4,5.3-5.3,5.3H165.7c-2.9,0-5.3-2.4-5.3-5.3V285.5z M847.6,1003.5
			c0,34.9-28.4,63.3-63.3,63.3H236c-34.9,0-63.3-28.4-63.3-63.3V691c4.3-2.5,8.5-5.4,12.2-8.9l325.2-297l325.2,297
			c3.7,3.4,7.8,6.4,12.2,8.9V1003.5z M964.6,646.5c-5.4,13.8-19,23.2-33.9,23.2H880c-9.1,0-17.8-3.4-24.5-9.5L510.2,344.9
			L164.9,660.2c-6.7,6.1-15.4,9.5-24.5,9.5H89.7c-14.9,0-28.5-9.3-33.9-23.2c-5.5-14-1.8-29.7,9.4-40l420.4-383.9
			c6.7-6.1,15.4-9.5,24.5-9.5c9.1,0,17.8,3.4,24.5,9.5l420.4,383.9C966.3,616.6,970.1,632.3,964.6,646.5z"/>
	</g>
	<text transform="matrix(1 0 0 1 414.5366 979.2432)"><tspan x="0" y="0" class="st0 st3 st4">Alug</tspan><tspan x="416.4" y="0" class="st3 st4"> </tspan><tspan x="466.5" y="0" class="st1 st3 st4">Ai</tspan></text>
</g>
</svg>
